<mxfile host="65bd71144e">
    <diagram id="9Dzqb1EGjOe-SytgK-WJ" name="PÃ¡gina-1">
        <mxGraphModel dx="471" dy="1578" grid="1" gridSize="10" guides="1" tooltips="1" connect="1" arrows="1" fold="1" page="1" pageScale="1" pageWidth="827" pageHeight="1169" math="0" shadow="0">
            <root>
                <mxCell id="0"/>
                <mxCell id="1" parent="0"/>
                <mxCell id="4" value="" style="edgeStyle=none;html=1;" edge="1" parent="1" source="2" target="3">
                    <mxGeometry relative="1" as="geometry"/>
                </mxCell>
                <mxCell id="2" value="INICIO" style="ellipse;whiteSpace=wrap;html=1;fillColor=#60a917;fontColor=#ffffff;strokeColor=#2D7600;" vertex="1" parent="1">
                    <mxGeometry x="190" y="-110" width="120" height="80" as="geometry"/>
                </mxCell>
                <mxCell id="6" value="" style="edgeStyle=none;html=1;entryX=0.808;entryY=-0.062;entryDx=0;entryDy=0;entryPerimeter=0;" edge="1" parent="1" source="3" target="5">
                    <mxGeometry relative="1" as="geometry">
                        <Array as="points">
                            <mxPoint x="427" y="215"/>
                        </Array>
                    </mxGeometry>
                </mxCell>
                <mxCell id="3" value="Edad&amp;gt;=18" style="rhombus;whiteSpace=wrap;html=1;fillColor=#60a917;fontColor=#ffffff;strokeColor=#2D7600;" vertex="1" parent="1">
                    <mxGeometry x="205" y="170" width="90" height="90" as="geometry"/>
                </mxCell>
                <mxCell id="5" value="MAYOR DE EDAD" style="shape=document;whiteSpace=wrap;html=1;boundedLbl=1;fillColor=#e3c800;fontColor=#000000;strokeColor=#B09500;" vertex="1" parent="1">
                    <mxGeometry x="330" y="270" width="120" height="80" as="geometry"/>
                </mxCell>
                <mxCell id="7" value="MENOR DE EDAD" style="shape=document;whiteSpace=wrap;html=1;boundedLbl=1;fillColor=#e3c800;fontColor=#000000;strokeColor=#B09500;" vertex="1" parent="1">
                    <mxGeometry x="30" y="270" width="120" height="80" as="geometry"/>
                </mxCell>
                <mxCell id="8" value="" style="endArrow=none;html=1;exitX=0.817;exitY=0.75;exitDx=0;exitDy=0;exitPerimeter=0;entryX=0.167;entryY=1;entryDx=0;entryDy=0;entryPerimeter=0;endFill=0;" edge="1" parent="1" source="5" target="7">
                    <mxGeometry width="50" height="50" relative="1" as="geometry">
                        <mxPoint x="20" y="400" as="sourcePoint"/>
                        <mxPoint x="70" y="350" as="targetPoint"/>
                        <Array as="points">
                            <mxPoint x="428" y="450"/>
                            <mxPoint x="240" y="450"/>
                            <mxPoint x="50" y="450"/>
                        </Array>
                    </mxGeometry>
                </mxCell>
                <mxCell id="9" value="" style="endArrow=classicThin;html=1;exitX=0;exitY=0.5;exitDx=0;exitDy=0;endFill=1;strokeWidth=1;" edge="1" parent="1" source="3">
                    <mxGeometry width="50" height="50" relative="1" as="geometry">
                        <mxPoint x="110" y="250" as="sourcePoint"/>
                        <mxPoint x="45" y="270" as="targetPoint"/>
                        <Array as="points">
                            <mxPoint x="45" y="215"/>
                        </Array>
                    </mxGeometry>
                </mxCell>
                <mxCell id="10" value="FIN" style="ellipse;whiteSpace=wrap;html=1;fillColor=#0050ef;fontColor=#ffffff;strokeColor=#001DBC;" vertex="1" parent="1">
                    <mxGeometry x="180" y="505" width="120" height="80" as="geometry"/>
                </mxCell>
                <mxCell id="11" value="" style="endArrow=none;html=1;strokeWidth=1;exitX=0.5;exitY=0;exitDx=0;exitDy=0;" edge="1" parent="1" source="10">
                    <mxGeometry width="50" height="50" relative="1" as="geometry">
                        <mxPoint x="220" y="510" as="sourcePoint"/>
                        <mxPoint x="240" y="450" as="targetPoint"/>
                    </mxGeometry>
                </mxCell>
                <mxCell id="12" value="Edad" style="shape=parallelogram;perimeter=parallelogramPerimeter;whiteSpace=wrap;html=1;fixedSize=1;fillColor=#1ba1e2;fontColor=#ffffff;strokeColor=#006EAF;" vertex="1" parent="1">
                    <mxGeometry x="190" y="20" width="120" height="60" as="geometry"/>
                </mxCell>
                <mxCell id="13" value="TRUE" style="text;html=1;align=center;verticalAlign=middle;resizable=0;points=[];autosize=1;strokeColor=none;fillColor=none;" vertex="1" parent="1">
                    <mxGeometry x="305" y="190" width="50" height="20" as="geometry"/>
                </mxCell>
                <mxCell id="14" value="FALSE" style="text;html=1;align=center;verticalAlign=middle;resizable=0;points=[];autosize=1;strokeColor=none;fillColor=none;" vertex="1" parent="1">
                    <mxGeometry x="135" y="190" width="50" height="20" as="geometry"/>
                </mxCell>
            </root>
        </mxGraphModel>
    </diagram>
</mxfile>